<mxfile host="app.diagrams.net" agent="Mozilla/5.0 (Windows NT 10.0; Win64; x64) AppleWebKit/537.36 (KHTML, like Gecko) Chrome/140.0.0.0 Safari/537.36" version="28.2.5">
  <diagram name="PÃ¡gina-1" id="f2cTihsXY3-cn9un1wgw">
    <mxGraphModel dx="1901" dy="991" grid="1" gridSize="10" guides="1" tooltips="1" connect="1" arrows="1" fold="1" page="1" pageScale="1" pageWidth="827" pageHeight="1169" math="0" shadow="0">
      <root>
        <mxCell id="0" />
        <mxCell id="1" parent="0" />
        <mxCell id="ck99UxX8K9167ZzSGrsr-1" value="Inicio" style="strokeWidth=2;html=1;shape=mxgraph.flowchart.terminator;whiteSpace=wrap;" vertex="1" parent="1">
          <mxGeometry x="630" y="310" width="100" height="60" as="geometry" />
        </mxCell>
        <mxCell id="ck99UxX8K9167ZzSGrsr-2" value="&lt;div&gt;FIn&lt;/div&gt;" style="strokeWidth=2;html=1;shape=mxgraph.flowchart.terminator;whiteSpace=wrap;" vertex="1" parent="1">
          <mxGeometry x="630" y="1050" width="100" height="60" as="geometry" />
        </mxCell>
        <mxCell id="ck99UxX8K9167ZzSGrsr-3" style="edgeStyle=orthogonalEdgeStyle;rounded=0;orthogonalLoop=1;jettySize=auto;html=1;" edge="1" parent="1" source="ck99UxX8K9167ZzSGrsr-4" target="ck99UxX8K9167ZzSGrsr-5">
          <mxGeometry relative="1" as="geometry" />
        </mxCell>
        <mxCell id="ck99UxX8K9167ZzSGrsr-4" value="Por favor ponga su nota" style="strokeWidth=2;html=1;shape=mxgraph.flowchart.document2;whiteSpace=wrap;size=0.25;" vertex="1" parent="1">
          <mxGeometry x="580" y="470" width="200" height="100" as="geometry" />
        </mxCell>
        <mxCell id="ck99UxX8K9167ZzSGrsr-5" value="&lt;font style=&quot;color: light-dark(rgb(0, 0, 0), rgb(255, 0, 0));&quot;&gt;Nota&lt;/font&gt;" style="shape=parallelogram;html=1;strokeWidth=2;perimeter=parallelogramPerimeter;whiteSpace=wrap;rounded=1;arcSize=12;size=0.23;" vertex="1" parent="1">
          <mxGeometry x="595" y="605" width="170" height="60" as="geometry" />
        </mxCell>
        <mxCell id="ck99UxX8K9167ZzSGrsr-6" value="&quot;Nota introducida correctamente &quot;, &lt;font style=&quot;color: light-dark(rgb(0, 0, 0), rgb(255, 0, 0));&quot;&gt;Nota&lt;/font&gt;" style="strokeWidth=2;html=1;shape=mxgraph.flowchart.document2;whiteSpace=wrap;size=0.25;" vertex="1" parent="1">
          <mxGeometry x="340" y="805" width="230" height="70" as="geometry" />
        </mxCell>
        <mxCell id="ck99UxX8K9167ZzSGrsr-7" style="edgeStyle=orthogonalEdgeStyle;rounded=0;orthogonalLoop=1;jettySize=auto;html=1;entryX=0.5;entryY=0;entryDx=0;entryDy=0;entryPerimeter=0;" edge="1" parent="1" source="ck99UxX8K9167ZzSGrsr-9" target="ck99UxX8K9167ZzSGrsr-11">
          <mxGeometry relative="1" as="geometry">
            <mxPoint x="856" y="800" as="targetPoint" />
          </mxGeometry>
        </mxCell>
        <mxCell id="ck99UxX8K9167ZzSGrsr-8" value="False" style="edgeLabel;html=1;align=center;verticalAlign=middle;resizable=0;points=[];" vertex="1" connectable="0" parent="ck99UxX8K9167ZzSGrsr-7">
          <mxGeometry x="0.0718" y="1" relative="1" as="geometry">
            <mxPoint as="offset" />
          </mxGeometry>
        </mxCell>
        <mxCell id="ck99UxX8K9167ZzSGrsr-9" value="&lt;font style=&quot;color: light-dark(rgb(0, 0, 0), rgb(255, 0, 0));&quot;&gt;Nota &lt;/font&gt;&amp;gt;=0 and nota &amp;lt;= 10" style="strokeWidth=2;html=1;shape=mxgraph.flowchart.decision;whiteSpace=wrap;" vertex="1" parent="1">
          <mxGeometry x="570" y="680" width="226" height="100" as="geometry" />
        </mxCell>
        <mxCell id="ck99UxX8K9167ZzSGrsr-10" style="edgeStyle=orthogonalEdgeStyle;rounded=0;orthogonalLoop=1;jettySize=auto;html=1;entryX=1;entryY=0.5;entryDx=0;entryDy=0;" edge="1" parent="1" source="ck99UxX8K9167ZzSGrsr-11" target="ck99UxX8K9167ZzSGrsr-5">
          <mxGeometry relative="1" as="geometry">
            <mxPoint x="1080" y="640" as="targetPoint" />
            <Array as="points">
              <mxPoint x="1110" y="840" />
              <mxPoint x="1110" y="630" />
              <mxPoint x="746" y="630" />
            </Array>
          </mxGeometry>
        </mxCell>
        <mxCell id="ck99UxX8K9167ZzSGrsr-11" value="&quot;Error entre, solo notas entre 0 y 10&amp;nbsp; &quot;, &lt;font style=&quot;color: light-dark(rgb(0, 0, 0), rgb(255, 0, 0));&quot;&gt;Nota&lt;/font&gt;" style="strokeWidth=2;html=1;shape=mxgraph.flowchart.document2;whiteSpace=wrap;size=0.25;" vertex="1" parent="1">
          <mxGeometry x="803" y="810" width="203" height="60" as="geometry" />
        </mxCell>
        <mxCell id="ck99UxX8K9167ZzSGrsr-12" style="edgeStyle=orthogonalEdgeStyle;rounded=0;orthogonalLoop=1;jettySize=auto;html=1;exitX=0;exitY=0.5;exitDx=0;exitDy=0;exitPerimeter=0;entryX=0.5;entryY=0;entryDx=0;entryDy=0;entryPerimeter=0;" edge="1" parent="1" source="ck99UxX8K9167ZzSGrsr-9" target="ck99UxX8K9167ZzSGrsr-6">
          <mxGeometry relative="1" as="geometry" />
        </mxCell>
        <mxCell id="ck99UxX8K9167ZzSGrsr-13" value="True" style="edgeLabel;html=1;align=center;verticalAlign=middle;resizable=0;points=[];" vertex="1" connectable="0" parent="ck99UxX8K9167ZzSGrsr-12">
          <mxGeometry x="0.04" y="4" relative="1" as="geometry">
            <mxPoint as="offset" />
          </mxGeometry>
        </mxCell>
        <mxCell id="ck99UxX8K9167ZzSGrsr-14" style="edgeStyle=orthogonalEdgeStyle;rounded=0;orthogonalLoop=1;jettySize=auto;html=1;entryX=0.5;entryY=0;entryDx=0;entryDy=0;entryPerimeter=0;" edge="1" parent="1" source="ck99UxX8K9167ZzSGrsr-6" target="ck99UxX8K9167ZzSGrsr-2">
          <mxGeometry relative="1" as="geometry" />
        </mxCell>
        <mxCell id="ck99UxX8K9167ZzSGrsr-15" style="edgeStyle=orthogonalEdgeStyle;rounded=0;orthogonalLoop=1;jettySize=auto;html=1;entryX=0.5;entryY=0;entryDx=0;entryDy=0;entryPerimeter=0;" edge="1" parent="1" source="ck99UxX8K9167ZzSGrsr-1" target="ck99UxX8K9167ZzSGrsr-4">
          <mxGeometry relative="1" as="geometry" />
        </mxCell>
        <mxCell id="ck99UxX8K9167ZzSGrsr-16" value="Recursos muriendo" style="shape=umlActor;verticalLabelPosition=bottom;verticalAlign=top;html=1;outlineConnect=0;" vertex="1" parent="1">
          <mxGeometry x="1100" y="545" width="30" height="60" as="geometry" />
        </mxCell>
        <mxCell id="ck99UxX8K9167ZzSGrsr-17" value="" style="verticalLabelPosition=bottom;verticalAlign=top;html=1;shape=mxgraph.basic.flash" vertex="1" parent="1">
          <mxGeometry x="1121" y="445" width="60" height="100" as="geometry" />
        </mxCell>
      </root>
    </mxGraphModel>
  </diagram>
</mxfile>
